<svg width="278" height="22" viewBox="0 0 278 22" fill="none" xmlns="http://www.w3.org/2000/svg">
<path d="M2 10.5459L276.182 10.5459" stroke="url(#paint0_linear_805_663)" stroke-width="2.63636" stroke-linecap="round" stroke-dasharray="5.27 5.27"/>
<circle cx="139.09" cy="10.5455" r="10.5455" fill="white"/>
<path d="M134.828 9.23792L135.689 10.2617C135.821 10.4155 135.821 10.6703 135.689 10.8241L134.828 11.8479C134.709 12.0852 134.828 12.3752 135.083 12.4631L135.667 12.6564C135.808 12.7047 136.014 12.6564 136.12 12.551L137.121 11.5535C137.192 11.4788 137.332 11.4217 137.433 11.4217H138.686C138.87 11.4217 138.958 11.5579 138.888 11.7293L137.956 13.8867C137.811 14.225 137.991 14.5019 138.36 14.5019H138.927C139.222 14.5019 139.56 14.2822 139.674 14.0097L140.733 11.5535C140.764 11.4832 140.856 11.4217 140.935 11.4217H142.253C142.666 11.4217 143.154 11.1185 143.343 10.7494C143.409 10.6176 143.409 10.4638 143.343 10.332C143.154 9.96292 142.662 9.65974 142.249 9.65974H140.931C140.852 9.65974 140.76 9.59823 140.729 9.52792L139.67 7.07611C139.56 6.80368 139.222 6.58398 138.927 6.58398H138.36C137.991 6.58398 137.811 6.8608 137.956 7.19914L138.888 9.35656C138.962 9.52353 138.87 9.66414 138.686 9.66414H137.433C137.332 9.66414 137.192 9.60701 137.121 9.53671L136.12 8.53929C136.014 8.43383 135.812 8.3855 135.667 8.43383L135.083 8.62717C134.828 8.70626 134.705 8.99626 134.828 9.23792Z" stroke="#E4E5E9" stroke-width="0.922727" stroke-linecap="round" stroke-linejoin="round"/>
<defs>
<linearGradient id="paint0_linear_805_663" x1="2" y1="11.0459" x2="276.182" y2="11.0459" gradientUnits="userSpaceOnUse">
<stop stop-color="#E4E5E9" stop-opacity="0"/>
<stop offset="0.5" stop-color="#E4E5E9"/>
<stop offset="1" stop-color="#E4E5E9" stop-opacity="0"/>
</linearGradient>
</defs>
</svg>
